<mxfile host="65bd71144e">
    <diagram id="yS7PUYu2Z6NNEnQSh9Qf" name="Page-1">
        <mxGraphModel dx="1309" dy="725" grid="1" gridSize="10" guides="1" tooltips="1" connect="1" arrows="1" fold="1" page="1" pageScale="1" pageWidth="850" pageHeight="1100" math="0" shadow="0">
            <root>
                <mxCell id="0"/>
                <mxCell id="1" parent="0"/>
            </root>
        </mxGraphModel>
    </diagram>
    <diagram id="pGFeWjjEmyrrkAeTGkh3" name="Page-2">
        <mxGraphModel dx="1039" dy="725" grid="1" gridSize="10" guides="1" tooltips="1" connect="1" arrows="1" fold="1" page="1" pageScale="1" pageWidth="3300" pageHeight="4681" background="none" math="0" shadow="0">
            <root>
                <mxCell id="0"/>
                <mxCell id="1" parent="0"/>
                <mxCell id="GjlZvlYBQiwvM4VwjVAI-1" value="x || o" style="rounded=1;whiteSpace=wrap;html=1;" vertex="1" parent="1">
                    <mxGeometry x="1240" y="290" width="120" height="60" as="geometry"/>
                </mxCell>
                <mxCell id="GjlZvlYBQiwvM4VwjVAI-6" style="edgeStyle=none;html=1;" edge="1" parent="1" source="GjlZvlYBQiwvM4VwjVAI-2" target="GjlZvlYBQiwvM4VwjVAI-5">
                    <mxGeometry relative="1" as="geometry"/>
                </mxCell>
                <mxCell id="GjlZvlYBQiwvM4VwjVAI-7" style="edgeStyle=none;html=1;" edge="1" parent="1" source="GjlZvlYBQiwvM4VwjVAI-2">
                    <mxGeometry relative="1" as="geometry">
                        <mxPoint x="1600" y="480" as="targetPoint"/>
                    </mxGeometry>
                </mxCell>
                <mxCell id="GjlZvlYBQiwvM4VwjVAI-2" value="tìm phần thưởng cao nhất" style="rounded=1;whiteSpace=wrap;html=1;" vertex="1" parent="1">
                    <mxGeometry x="1240" y="450" width="120" height="60" as="geometry"/>
                </mxCell>
                <mxCell id="GjlZvlYBQiwvM4VwjVAI-3" value="" style="endArrow=classic;html=1;exitX=0.5;exitY=1;exitDx=0;exitDy=0;" edge="1" parent="1" source="GjlZvlYBQiwvM4VwjVAI-1" target="GjlZvlYBQiwvM4VwjVAI-2">
                    <mxGeometry width="50" height="50" relative="1" as="geometry">
                        <mxPoint x="1450" y="550" as="sourcePoint"/>
                        <mxPoint x="1500" y="500" as="targetPoint"/>
                    </mxGeometry>
                </mxCell>
                <mxCell id="GjlZvlYBQiwvM4VwjVAI-5" value="vị trí ô có phần thưởng cao nhất" style="rounded=1;whiteSpace=wrap;html=1;" vertex="1" parent="1">
                    <mxGeometry x="1240" y="780" width="120" height="60" as="geometry"/>
                </mxCell>
                <mxCell id="GjlZvlYBQiwvM4VwjVAI-13" value="" style="edgeStyle=none;html=1;" edge="1" parent="1" source="GjlZvlYBQiwvM4VwjVAI-8" target="GjlZvlYBQiwvM4VwjVAI-12">
                    <mxGeometry relative="1" as="geometry"/>
                </mxCell>
                <mxCell id="GjlZvlYBQiwvM4VwjVAI-8" value="ô" style="rounded=1;whiteSpace=wrap;html=1;" vertex="1" parent="1">
                    <mxGeometry x="1600" y="450" width="120" height="60" as="geometry"/>
                </mxCell>
                <mxCell id="GjlZvlYBQiwvM4VwjVAI-15" value="" style="edgeStyle=none;html=1;" edge="1" parent="1" source="GjlZvlYBQiwvM4VwjVAI-12" target="GjlZvlYBQiwvM4VwjVAI-14">
                    <mxGeometry relative="1" as="geometry"/>
                </mxCell>
                <mxCell id="GjlZvlYBQiwvM4VwjVAI-12" value="phần thưởng || hình phạt" style="whiteSpace=wrap;html=1;rounded=1;" vertex="1" parent="1">
                    <mxGeometry x="1840" y="450" width="120" height="60" as="geometry"/>
                </mxCell>
                <mxCell id="GjlZvlYBQiwvM4VwjVAI-14" value="tổng điểm" style="whiteSpace=wrap;html=1;rounded=1;" vertex="1" parent="1">
                    <mxGeometry x="1840" y="590" width="120" height="60" as="geometry"/>
                </mxCell>
                <mxCell id="GjlZvlYBQiwvM4VwjVAI-18" value="" style="curved=1;endArrow=classic;html=1;exitX=0;exitY=0.5;exitDx=0;exitDy=0;entryX=1;entryY=1;entryDx=0;entryDy=0;" edge="1" parent="1" source="GjlZvlYBQiwvM4VwjVAI-14" target="GjlZvlYBQiwvM4VwjVAI-2">
                    <mxGeometry width="50" height="50" relative="1" as="geometry">
                        <mxPoint x="1450" y="640" as="sourcePoint"/>
                        <mxPoint x="1480" y="480" as="targetPoint"/>
                        <Array as="points">
                            <mxPoint x="1470" y="590"/>
                        </Array>
                    </mxGeometry>
                </mxCell>
            </root>
        </mxGraphModel>
    </diagram>
</mxfile>